<svg width="107" height="183" viewBox="0 0 107 183" fill="none" xmlns="http://www.w3.org/2000/svg">
<path d="M102.775 124.397C104.354 160.728 89.5001 173.5 61.5001 178.5C33.0532 180.531 8.07902 172.83 6.50029 136.5C4.51462 90.8051 18.5528 6.53082 46.9998 4.5C75.4467 2.46919 100.771 78.2851 102.775 124.397Z" fill="white"/>
<path d="M41.3654 9.735L40.7995 9.89147C40.7967 9.89223 40.7949 9.89287 40.7918 9.8943C40.7883 9.89595 40.7785 9.90076 40.7609 9.91207C40.721 9.93782 40.6577 9.98553 40.5323 10.1005C40.5281 10.1043 40.5179 10.114 40.5027 10.1283C40.4076 10.2182 40.1182 10.4917 39.9147 10.6555L39.9098 10.6594C39.771 10.771 39.3872 11.0799 38.8136 11.2904C38.6632 11.451 38.4561 11.6921 38.192 12.0292C37.6753 12.6887 37.0603 13.5607 36.3902 14.5736C38.0078 12.5894 39.5296 11.0511 41.3249 9.93278C43.5815 8.52723 45.9995 7.94978 48.9674 7.54876L41.3654 9.735ZM41.3654 9.735L41.8305 9.37674C42.1403 9.13821 43.0264 8.7361 44.3348 8.27594C44.8108 8.10853 45.2665 7.95839 45.6913 7.81841C45.7909 7.78559 45.8889 7.75333 45.985 7.72153C46.0055 7.71474 46.0268 7.70771 46.0487 7.70045C46.4292 7.57481 47.0159 7.38103 47.4088 7.1853C47.4086 7.18541 47.4088 7.18534 47.4094 7.1851C47.4215 7.18039 47.6025 7.1103 48.0601 7.13172C48.5185 7.15317 49.0667 7.25774 49.6452 7.42225C49.8235 7.47297 49.9971 7.52718 50.1631 7.5826M41.3654 9.735L50.1631 7.5826M82.312 48.3988C82.8349 49.5616 83.4174 50.9094 84.0458 52.4126C83.9308 52.2907 83.811 52.1731 83.6866 52.0617C83.3149 51.7293 82.3425 50.938 80.9441 51.0053C80.9439 51.0053 80.9438 51.0053 80.9436 51.0053L81.0883 54.0019C80.5013 54.0301 77.4815 55.077 74.3769 56.327C70.2275 57.9976 67.9086 59.948 65.8264 61.6992C62.5184 64.4813 59.8082 66.7607 51.3053 66.6173C47.9964 66.5616 42.2021 66.091 36.4501 65.6238C28.0225 64.9394 19.6855 64.2623 19.3887 64.9081M82.312 48.3988L16.9332 63.7788L19.3887 64.9081M82.312 48.3988C82.2934 48.619 82.2523 48.8587 82.1748 49.1048C81.8492 50.1382 81.1343 50.7283 80.5904 51.04L82.312 48.3988ZM19.3887 64.9081L16.933 63.7797L10.8714 98.4027C10.8191 99.146 10.7486 100.032 10.6683 100.972C10.6683 100.972 10.6683 100.972 10.6683 100.972C10.4916 103.037 10.2674 105.358 10.0839 106.975C9.72437 110.144 9.58141 114.819 9.62426 119.861L11.894 119.717M19.3887 64.9081C18.5094 66.82 15.3491 82.4519 14.1945 90.6016C13.6288 94.5913 12.9101 99.4018 12.5965 101.292C12.1048 104.258 11.6576 115.99 11.894 119.717M11.894 119.717L9.62426 119.861L70.4477 115.129C66.248 114.299 62.0689 113.472 58.5408 113.472C53.7082 113.472 45.2869 116.781 37.8742 119.693C31.2203 122.307 25.379 124.602 23.6755 123.898C22.0442 123.224 19.9978 122.672 19.1279 122.672C16.0535 122.672 11.9756 121.006 11.894 119.717ZM7.10302 106.637L9.12178 106.866L7.10302 106.637ZM7.10302 106.637L9.12177 106.866M7.10302 106.637L9.12177 106.866M50.1631 7.5826C49.8611 7.53087 49.4288 7.48641 48.9686 7.5486L50.1631 7.5826ZM9.12177 106.866C9.06535 107.919 9.0158 109.018 8.97438 110.105C8.83099 113.866 8.77099 117.872 8.90002 119.907L9.12177 106.866ZM100.637 112.095C101.026 111.648 101.46 111.136 101.812 110.486C101.875 110.821 101.937 111.162 101.999 111.506C102.189 112.567 102.372 113.643 102.528 114.627C102.425 114.544 102.316 114.465 102.201 114.389C101.045 113.632 99.7874 113.621 98.8658 113.773C98.7819 113.787 98.6976 113.803 98.6128 113.821C99.3688 113.292 100.117 112.693 100.637 112.095ZM100.637 112.095L98.3726 110.127M100.637 112.095C100.637 112.094 100.638 112.094 100.638 112.094L98.3726 110.127M98.3726 110.127C97.5931 111.025 95.2619 112.53 93.1922 113.472L100.027 101.827C99.9822 100.956 99.6757 99.2441 99.2406 97.3976L97.8928 97.8555M98.3726 110.127C99.7098 108.588 99.7512 108.236 99.1014 103.939C98.7226 101.433 98.1788 98.6955 97.8928 97.8555M97.8928 97.8555L99.2404 97.3967L93.3138 82.0343C94.2991 84.7892 96.5212 92.3975 97.0424 94.8012C97.2243 95.6412 97.6075 97.0156 97.8928 97.8555ZM104.184 118.116C104.265 119.018 104.297 120.28 104.313 121.566C104.335 123.425 104.322 125.734 104.282 128.097C104.273 128.634 104.262 129.178 104.25 129.723L106.244 129.677M104.184 118.116L92.0234 161.932C92.9723 160.914 93.9856 159.732 94.9848 158.491C95.2743 158.132 95.5627 157.767 95.8479 157.4C98.2995 154.247 100.837 150.517 101.764 148.114L101.764 148.114C101.9 147.761 102.038 147.372 102.173 146.959C102.173 146.958 102.173 146.958 102.173 146.958C102.628 145.566 103.063 143.895 103.373 142.364C103.373 142.364 103.373 142.364 103.373 142.364C103.536 141.561 103.664 140.797 103.743 140.133C103.98 138.125 104.157 133.9 104.25 129.723L106.244 129.677M104.184 118.116L105.986 118.09M104.184 118.116L105.986 118.09M106.244 129.677C106.111 123.934 105.995 118.72 105.986 118.09M106.244 129.677C106.422 137.396 106.254 140.88 105.598 143.039L105.986 118.09M78.3131 73.4894C77.844 72.2615 77.1794 71.1444 76.5275 70.7196M78.3131 73.4894L71.8693 72.4073C71.9981 72.1697 72.1387 71.9494 72.291 71.752M78.3131 73.4894C78.1471 73.1774 77.9582 72.8787 77.7422 72.604C77.441 72.2209 76.8964 71.6654 76.1324 71.3262L76.5275 70.7196M78.3131 73.4894L76.1323 71.3261L76.5275 70.7196M76.5275 70.7196C74.7859 69.5849 73.7736 69.8316 72.291 71.752M72.291 71.752L72.4239 71.8545L72.291 71.752ZM17.1166 62.9422C17.6844 60.3463 18.1551 58.1434 18.3512 57.1518L21.3982 56.5667L19.0806 58.4716C19.0806 58.4716 19.0807 58.4717 19.0808 58.4718C19.6355 59.1466 20.3156 59.4177 20.697 59.5304C21.0998 59.6494 21.4639 59.6788 21.7099 59.6865C22.203 59.7019 22.6991 59.6398 23.1039 59.5729C23.9435 59.4341 24.9834 59.1706 26.0954 58.8551C28.3444 58.2169 31.3085 57.2429 34.424 56.2165L34.4908 56.1945C40.8667 54.0939 47.7755 51.8178 51.7874 51.1643C57.7875 50.1873 64.3295 50.5791 69.642 51.0517C70.4132 51.1204 71.1719 51.192 71.9028 51.2611C73.6025 51.4217 75.152 51.5682 76.3599 51.6286C77.0424 51.6628 77.7538 51.6787 78.4036 51.6311C78.1771 51.7061 77.9398 51.7866 77.6944 51.8716C76.4248 52.3116 74.8472 52.9036 73.2565 53.5441C68.6146 55.413 65.849 57.7464 63.7444 59.5221C63.1857 59.9935 62.6736 60.4256 62.1854 60.7992C61.0278 61.6851 59.8951 62.3705 58.3509 62.8525C56.7697 63.346 54.6049 63.6726 51.3559 63.6178C48.154 63.5638 42.5003 63.1049 36.7531 62.6384C35.401 62.5286 34.0438 62.4185 32.7121 62.313C29.2669 62.0403 26.0053 61.8012 23.5635 61.7C22.3543 61.6499 21.2686 61.6299 20.436 61.6668C20.036 61.6846 19.5752 61.7197 19.1483 61.8056C18.9436 61.8467 18.6127 61.925 18.2574 62.0869C18.0717 62.1715 17.563 62.416 17.1166 62.9422ZM58.8349 12.3388C57.7502 11.4494 56.2054 10.3684 54.8847 9.57067L55.3214 9.7577L55.8871 9.99995H56.5025C56.4825 9.99995 56.4853 10.0009 56.5119 10.0097C56.6217 10.0459 57.1361 10.2155 58.1275 11.0034C59.2349 11.8834 60.5554 13.2254 62.0259 14.9688C62.5231 15.5583 63.0293 16.1839 63.5418 16.8401C61.8713 15.0905 60.164 13.4292 58.8355 12.3393L58.8349 12.3388ZM53.6685 8.88721C53.0768 8.58615 52.4599 8.31227 51.8893 8.09349C51.8351 8.07269 51.7812 8.05238 51.7279 8.0326L53.6685 8.88721ZM81.5895 40.0689C81.5895 39.4573 79.9456 36.6099 73.7316 26.4612L82.7441 42.5841C82.1094 41.5823 81.5895 40.4507 81.5895 40.0689ZM101.784 101.737C101.44 99.7446 101.031 97.7645 100.733 96.8905L101.784 101.737ZM58.5408 116.472C59.4211 116.472 60.3436 116.528 61.3042 116.626C60.9041 116.657 60.4995 116.692 60.0904 116.731L60.0903 116.731C57.0833 117.015 53.4867 117.964 49.799 119.091C47.619 119.757 45.2679 120.53 42.9078 121.306C41.2969 121.836 39.6818 122.367 38.1139 122.866C37.9158 122.93 37.718 122.992 37.5206 123.055C37.9993 122.867 38.4816 122.678 38.9659 122.487C39.348 122.337 39.7313 122.187 40.1151 122.036C43.6816 120.637 47.3317 119.228 50.6452 118.168C54.0353 117.083 56.7513 116.472 58.5408 116.472ZM20.335 125.929C20.9052 126.082 21.5311 126.284 22.1114 126.505C20.7878 126.556 19.6484 126.474 18.7026 126.253C17.0841 125.875 15.5108 125.599 14.2578 125.465C13.644 125.4 13.022 125.359 12.4759 125.378C12.2119 125.386 11.8577 125.412 11.4872 125.496L11.4788 125.498C11.2761 125.544 10.4591 125.729 9.77856 126.436C9.7216 124.94 9.67922 123.434 9.65217 121.946C9.66583 121.965 9.67942 121.984 9.69292 122.002C10.0376 122.467 10.4437 122.831 10.8056 123.107C11.529 123.66 12.4018 124.107 13.2544 124.455C14.9536 125.149 17.1284 125.672 19.1279 125.672C19.1196 125.672 19.1153 125.672 19.1153 125.672C19.1153 125.673 19.2126 125.679 19.4349 125.719C19.6756 125.763 19.9818 125.833 20.335 125.929ZM39.011 11.0956C39.011 11.0956 39.0099 11.0966 39.0077 11.0983C39.0099 11.0964 39.0111 11.0955 39.011 11.0956ZM36.1933 173.523C37.8151 174.064 39.4813 174.524 41.1511 174.891C38.8697 174.564 37.4529 174.172 36.8707 173.871C36.6903 173.777 36.461 173.66 36.1933 173.523ZM13.2481 66.5491L13.2487 66.5492L13.2481 66.5491Z" stroke="black" stroke-width="6"/>
</svg>
